<?xml version="1.0" encoding="utf-8"?><svg version="1.1" id="Layer_1" xmlns="http://www.w3.org/2000/svg" xmlns:xlink="http://www.w3.org/1999/xlink" x="0px" y="0px" viewBox="0 0 122.88 95.51" style="enable-background:new 0 0 122.88 95.51" xml:space="preserve"><style type="text/css">.st0{fill-rule:evenodd;clip-rule:evenodd;}</style><g><path class="st0" d="M8.32,0h106.24c4.58,0,8.32,3.74,8.32,8.32v78.87c0,4.57-3.74,8.32-8.32,8.32H8.32C3.74,95.51,0,91.77,0,87.19 V8.32C0,3.74,3.74,0,8.32,0L8.32,0z M12.6,26.95h96.77v41.08H12.6V26.95L12.6,26.95z M32.21,38.67h5.98v12.44 c0,1.23-0.18,2.4-0.54,3.49c-0.36,1.1-0.92,2.06-1.68,2.88c-0.76,0.82-1.56,1.4-2.4,1.73c-1.16,0.46-2.56,0.7-4.19,0.7 c-0.94,0-1.97-0.07-3.09-0.21c-1.11-0.14-2.05-0.42-2.8-0.85c-0.75-0.42-1.43-1.02-2.05-1.8c-0.62-0.78-1.05-1.58-1.28-2.41 c-0.37-1.33-0.56-2.5-0.56-3.53V38.67h5.98v12.74c0,1.14,0.29,2.03,0.88,2.66c0.59,0.64,1.4,0.96,2.44,0.96 c1.02,0,1.83-0.32,2.42-0.95c0.58-0.63,0.88-1.52,0.88-2.68V38.67L32.21,38.67z M42.39,38.67h6.01v20.89h-6.01V38.67L42.39,38.67z M55.59,38.32h2.72l-4.89,21.59h-2.72L55.59,38.32L55.59,38.32z M72.82,38.67h5.98v12.44c0,1.23-0.18,2.4-0.54,3.49 c-0.36,1.1-0.92,2.06-1.68,2.88c-0.76,0.82-1.56,1.4-2.4,1.73c-1.16,0.46-2.56,0.7-4.19,0.7c-0.94,0-1.97-0.07-3.09-0.21 c-1.11-0.14-2.05-0.42-2.8-0.85c-0.75-0.42-1.43-1.02-2.05-1.8c-0.62-0.78-1.05-1.58-1.28-2.41c-0.37-1.33-0.55-2.5-0.55-3.53 V38.67h5.98v12.74c0,1.14,0.29,2.03,0.88,2.66c0.59,0.64,1.4,0.96,2.44,0.96c1.02,0,1.83-0.32,2.42-0.95 c0.58-0.63,0.88-1.52,0.88-2.68V38.67L72.82,38.67z M81.43,38.67h6.61l3.43,6.43l3.33-6.43h6.52L95.3,48.79l6.59,10.77h-6.74 l-3.8-6.71l-3.83,6.71h-6.69l6.68-10.89L81.43,38.67L81.43,38.67z M66.87,83.68c-1.78,0-3.22-1.57-3.22-3.5 c0-1.94,1.44-3.5,3.22-3.5h39.65c1.78,0,3.22,1.57,3.22,3.5c0,1.94-1.44,3.5-3.22,3.5H66.87L66.87,83.68z M14.96,83.68 c-1.76,0-3.19-1.57-3.19-3.5c0-1.94,1.43-3.5,3.19-3.5h36.76c1.76,0,3.19,1.57,3.19,3.5c0,1.94-1.43,3.5-3.19,3.5H14.96 L14.96,83.68z M117.97,20.1H5.29V88c0,0.64,0.25,1.2,0.67,1.63c0.43,0.42,0.99,0.67,1.63,0.67h108.04c0.64,0,1.2-0.25,1.63-0.67 c0.43-0.43,0.67-0.99,0.67-1.63V20.1H117.97L117.97,20.1z M106.64,6.16c2.27,0,4.11,1.84,4.11,4.11c0,2.27-1.84,4.11-4.11,4.11 c-2.27,0-4.11-1.84-4.11-4.11C102.54,8,104.38,6.16,106.64,6.16L106.64,6.16z M78.8,6.16c2.27,0,4.11,1.84,4.11,4.11 c0,2.27-1.84,4.11-4.11,4.11c-2.27,0-4.11-1.84-4.11-4.11C74.69,8,76.53,6.16,78.8,6.16L78.8,6.16z M92.72,6.16 c2.27,0,4.11,1.84,4.11,4.11c0,2.27-1.84,4.11-4.11,4.11c-2.27,0-4.11-1.84-4.11-4.11C88.61,8,90.45,6.16,92.72,6.16L92.72,6.16z"/></g>
    <defs>
        <linearGradient id="paint0_linear" x1="3.15333" y1="1" x2="26.6886" y2="35.0542" gradientUnits="userSpaceOnUse">
        <stop offset="0.259336" stop-color="#FFDB6E"/>
        <stop offset="1" stop-color="#FFBC5E"/>
        </linearGradient>
        <linearGradient id="paint1_linear" x1="2.26667" y1="0.375001" x2="27.8327" y2="36.511" gradientUnits="userSpaceOnUse">
        <stop offset="0.259336" stop-color="#FFDB6E"/>
        <stop offset="1" stop-color="#FFBC5E"/>
        </linearGradient>
        <linearGradient id="paint2_linear" x1="15.3714" y1="4.22906" x2="15.5472" y2="6.9288" gradientUnits="userSpaceOnUse">
        <stop offset="0.259336" stop-color="#FFDB6E"/>
        <stop offset="1" stop-color="#FFBC5E"/>
        </linearGradient>
        <linearGradient id="paint3_linear" x1="4.02043" y1="4.22931" x2="5.36917" y2="5.71887" gradientUnits="userSpaceOnUse">
        <stop offset="0.259336" stop-color="#FFDB6E"/>
        <stop offset="1" stop-color="#FFBC5E"/>
        </linearGradient>
        <linearGradient id="paint4_linear" x1="7.14543" y1="4.22931" x2="8.49417" y2="5.71887" gradientUnits="userSpaceOnUse">
        <stop offset="0.259336" stop-color="#FFDB6E"/>
        <stop offset="1" stop-color="#FFBC5E"/>
        </linearGradient>
        <linearGradient id="paint5_linear" x1="10.2704" y1="4.22931" x2="11.6189" y2="5.71884" gradientUnits="userSpaceOnUse">
        <stop offset="0.259336" stop-color="#FFDB6E"/>
        <stop offset="1" stop-color="#FFBC5E"/>
        </linearGradient>
        <linearGradient id="paint6_linear" x1="17.2521" y1="13.6301" x2="25.0143" y2="19.281" gradientUnits="userSpaceOnUse">
        <stop offset="0.259336" stop-color="#FFDB6E"/>
        <stop offset="1" stop-color="#FFBC5E"/>
        </linearGradient>
        <linearGradient id="paint7_linear" x1="10.1144" y1="12.8915" x2="17.4785" y2="16.3959" gradientUnits="userSpaceOnUse">
        <stop offset="0.259336" stop-color="#FFDB6E"/>
        <stop offset="1" stop-color="#FFBC5E"/>
        </linearGradient>
        <linearGradient id="paint8_linear" x1="25.7059" y1="12.8918" x2="33.0696" y2="16.3959" gradientUnits="userSpaceOnUse">
        <stop offset="0.259336" stop-color="#FFDB6E"/>
        <stop offset="1" stop-color="#FFBC5E"/>
        </linearGradient>
        <linearGradient id="paint9_linear" x1="5.08133" y1="8.13532" x2="19.9152" y2="35.2721" gradientUnits="userSpaceOnUse">
        <stop offset="0.259336" stop-color="#FFDB6E"/>
        <stop offset="1" stop-color="#FFBC5E"/>
        </linearGradient>
        </defs>
</svg>