<svg id="Layer_1" data-name="Layer 1" xmlns="http://www.w3.org/2000/svg" xmlns:xlink="http://www.w3.org/1999/xlink" viewBox="0 0 40 40"><defs><style>.cls-1{opacity:0.15;isolation:isolate;fill:url(#linear-gradient);}.cls-2,.cls-4{stroke-miterlimit:10;}.cls-2{fill:url(#linear-gradient-2);stroke:url(#linear-gradient-3);}.cls-3{fill:url(#linear-gradient-4);}.cls-4{stroke-width:0.75px;fill:url(#linear-gradient-5);stroke:url(#linear-gradient-6);}</style><linearGradient id="linear-gradient" x1="3.34" y1="20" x2="36.66" y2="20" gradientUnits="userSpaceOnUse"><stop offset="0.26" stop-color="#ffdb6e"/><stop offset="1" stop-color="#ffbc5e"/></linearGradient><linearGradient id="linear-gradient-2" x1="2.79" y1="20" x2="37.21" y2="20" xlink:href="#linear-gradient"/><linearGradient id="linear-gradient-3" x1="2.29" y1="20" x2="37.71" y2="20" xlink:href="#linear-gradient"/><linearGradient id="linear-gradient-4" x1="11.11" y1="14.05" x2="22.94" y2="14.05" xlink:href="#linear-gradient"/><linearGradient id="linear-gradient-5" x1="11.11" y1="25.95" x2="28.29" y2="25.95" xlink:href="#linear-gradient"/><linearGradient id="linear-gradient-6" x1="10.74" y1="25.95" x2="28.67" y2="25.95" xlink:href="#linear-gradient"/></defs><title>icon</title><path class="cls-1" d="M34.87,16.43H33.09a3,3,0,0,1-3-3V12.27a8.92,8.92,0,0,0-8.92-8.93H12.27a8.93,8.93,0,0,0-8.93,8.93V28.33a8.33,8.33,0,0,0,8.33,8.33H28.33a8.33,8.33,0,0,0,8.33-8.33V18.22A1.79,1.79,0,0,0,34.87,16.43ZM13.46,12.27h7.13a1.79,1.79,0,1,1,0,3.57H13.46a1.79,1.79,0,1,1,0-3.57ZM26,27.73H13.46a1.79,1.79,0,1,1,0-3.57H26a1.79,1.79,0,0,1,0,3.57Z"/><path class="cls-2" d="M34.87,15.87H33.09a2.41,2.41,0,0,1-2.42-2.41V12.27a9.49,9.49,0,0,0-9.48-9.48H12.27a9.49,9.49,0,0,0-9.48,9.48V24.76a.56.56,0,1,0,1.11,0V12.27A8.37,8.37,0,0,1,12.27,3.9h8.92a8.38,8.38,0,0,1,8.37,8.37v1.19A3.54,3.54,0,0,0,33.09,17h1.78a1.23,1.23,0,0,1,1.23,1.23V28.33a7.78,7.78,0,0,1-7.77,7.77H11.67A7.78,7.78,0,0,1,3.9,28.33V27.14a.56.56,0,1,0-1.11,0v1.19a8.89,8.89,0,0,0,8.88,8.88H28.33a8.89,8.89,0,0,0,8.88-8.88V18.22A2.35,2.35,0,0,0,34.87,15.87Z"/><path class="cls-3" d="M13.46,16.39h7.13a2.34,2.34,0,1,0,0-4.68H13.46a2.34,2.34,0,1,0,0,4.68Zm0-3.57h7.13a1.23,1.23,0,0,1,0,2.46H13.46a1.23,1.23,0,0,1,0-2.46Z"/><path class="cls-4" d="M13.46,28.29H26a2.34,2.34,0,0,0,0-4.68H23a.56.56,0,0,0,0,1.11h3a1.23,1.23,0,0,1,0,2.46H13.46a1.23,1.23,0,1,1,0-2.46h7.13a.56.56,0,1,0,0-1.11H13.46a2.34,2.34,0,1,0,0,4.68Z"/></svg>