<svg id="Layer_1" data-name="Layer 1" xmlns="http://www.w3.org/2000/svg" xmlns:xlink="http://www.w3.org/1999/xlink" viewBox="0 0 40 40"><defs><style>.cls-1,.cls-2{fill-rule:evenodd;}.cls-1{opacity:0.15;isolation:isolate;fill:url(#linear-gradient);}.cls-2{fill:url(#linear-gradient-2);}</style><linearGradient id="linear-gradient" x1="-8.24" y1="33.06" x2="29.59" y2="11.19" gradientTransform="matrix(1, 0, 0, -1, 9, 42)" gradientUnits="userSpaceOnUse"><stop offset="0.26" stop-color="#ffdb6e"/><stop offset="1" stop-color="#ffbc5e"/></linearGradient><linearGradient id="linear-gradient-2" x1="0.43" y1="20" x2="39.57" y2="20" gradientTransform="matrix(1, 0, 0, 1, 0, 0)" xlink:href="#linear-gradient"/></defs><title>icon</title><path class="cls-1" d="M2.11,6V34.65h36.6V6Z"/><path class="cls-2" d="M3.08,4.79H36.92a2.65,2.65,0,0,1,2.65,2.65V32.56a2.65,2.65,0,0,1-2.65,2.65H3.08A2.65,2.65,0,0,1,.43,32.56V7.44A2.65,2.65,0,0,1,3.08,4.79Zm1.36,8.58H35.27V26.46H4.44V13.37Zm6.25,3.74h1.9v4a3.39,3.39,0,0,1-.17,1.11,2.41,2.41,0,0,1-.53.92,2.25,2.25,0,0,1-.77.55,3.53,3.53,0,0,1-1.33.22,9,9,0,0,1-1-.06,2.45,2.45,0,0,1-.89-.28A2,2,0,0,1,7.26,23a2.06,2.06,0,0,1-.41-.77,4.12,4.12,0,0,1-.18-1.12v-4H8.58v4.05a1.18,1.18,0,0,0,.28.85,1,1,0,0,0,.77.31,1,1,0,0,0,.77-.3,1.22,1.22,0,0,0,.28-.86V17.11Zm3.24,0h1.92v6.65H13.93V17.11ZM18.14,17H19l-1.56,6.88h-.86L18.14,17Zm5.49.12h1.9v4a3.68,3.68,0,0,1-.17,1.11,2.44,2.44,0,0,1-.54.92,2.13,2.13,0,0,1-.76.55,3.58,3.58,0,0,1-1.34.22,8.85,8.85,0,0,1-1-.06,2.45,2.45,0,0,1-.89-.28,2.31,2.31,0,0,1-1.06-1.34,4.12,4.12,0,0,1-.18-1.12v-4h1.91v4.05a1.18,1.18,0,0,0,.28.85,1,1,0,0,0,.77.31,1,1,0,0,0,.78-.3,1.27,1.27,0,0,0,.28-.86V17.11Zm2.74,0h2.1l1.1,2,1.06-2h2.08l-1.92,3.22,2.1,3.43H30.74l-1.21-2.14-1.22,2.14H26.18l2.13-3.47-1.94-3.18ZM21.73,31.45a1.12,1.12,0,0,1,0-2.23H34.36a1.12,1.12,0,0,1,0,2.23Zm-16.54,0a1.12,1.12,0,0,1,0-2.23H16.9a1.12,1.12,0,0,1,0,2.23ZM38,11.19H2.11V32.82a.74.74,0,0,0,.21.52.76.76,0,0,0,.52.21H37.26a.72.72,0,0,0,.52-.21.71.71,0,0,0,.22-.52V11.19ZM34.4,6.75a1.31,1.31,0,1,1-1.31,1.31A1.31,1.31,0,0,1,34.4,6.75Zm-8.87,0a1.31,1.31,0,1,1-1.31,1.31,1.31,1.31,0,0,1,1.31-1.31Zm4.44,0a1.31,1.31,0,1,1-1.31,1.31A1.3,1.3,0,0,1,30,6.75Z"/></svg>